<?xml version="1.0" encoding="utf-8"?>
<!-- Generator: Adobe Illustrator 27.1.0, SVG Export Plug-In . SVG Version: 6.00 Build 0)  -->
<svg version="1.1" id="Layer_1" xmlns="http://www.w3.org/2000/svg" xmlns:xlink="http://www.w3.org/1999/xlink" x="0px" y="0px"
	 viewBox="0 0 1000 1000" style="enable-background:new 0 0 1000 1000;" xml:space="preserve">
<style type="text/css">
	.st0{fill:none;}
	.st1{fill:url(#SVGID_1_);}
	.st2{fill:url(#SVGID_00000116943683115523057480000007294804987951908532_);}
	.st3{fill:url(#SVGID_00000088819221056584026220000006302409954820842683_);}
	.st4{fill:url(#SVGID_00000090260018665179010340000007264308809626145939_);}
	.st5{stroke:#FFFFFF;stroke-miterlimit:10;}
</style>
<g>
	<path d="M224,619.36v-363h103.01v363H224z M430.83,619.36v-48.57h81.38c12.83,0,138.24-14.28,169.71-31.95
		c27.96-15.7,45.62-37.18,52.98-64.45c2.63-9.73,3.94-20.2,3.94-31.41c0-46.18-18.98-80.74-56.91-103.66
		c-37.95-22.92-94.51-34.38-169.71-34.38h-79.32l-12.36-48.57h91.68C735.4,256.36,847,318.57,847,442.97
		c0,110.7-98.9,169.29-296.69,175.78c-12.32,0.4-25.01,0.61-38.1,0.61H430.83z"/>
</g>
<path d="M624.88,401.9"/>
<g>
	<path class="st0" d="M369.87,241.32v159.15h56.62V241.32H369.87z"/>
	<rect x="369.87" y="471.79" width="56.62" height="159.9"/>
	<rect x="369.87" y="631.69" width="56.62" height="71.31"/>
	<polyline points="590.53,703 426.48,703 426.48,631.69 636,631.69 	"/>
	<polyline points="426.48,471.79 426.48,400.47 478.44,400.47 	"/>
	<polyline points="555.04,400.1 505.76,471.79 451.13,471.79 503,400 	"/>
	<rect x="369.87" y="400.47" width="56.62" height="71.32"/>
	<rect x="369.87" y="170" width="56.62" height="71.32"/>
	<path d="M628.58,214.93c0.2-0.44,0.47-0.85,0.84-1.19c0.19-0.19,0.36-0.38,0.53-0.58c0.35-0.41,0.76-0.76,1.24-1.05
		c0.4-0.17,0.79-0.34,1.19-0.5c0.28-0.08,0.56-0.12,0.85-0.15c0.22-0.62,0.56-1.19,1.01-1.67c0.51-0.71,1.11-1.21,1.77-1.54V170
		H426.48v71.32h168.12c0.16-2.69,2.37-4.5,4.96-4.7c2.18-0.17,4.31-0.67,6.44-1.19c-0.23-1.72,0.42-3.51,2.42-4.6
		c3.55-1.93,7.25-3.52,10.95-5.11c0-0.04,0-0.07,0-0.1c0.01-0.98,0.23-1.72,0.69-2.57c0.38-0.71,1.12-1.42,1.82-1.82
		c0.76-0.44,1.5-0.64,2.35-0.68c0.05-0.12,0.09-0.23,0.15-0.35c0.2-0.62,0.55-1.16,1.03-1.61c0.01-0.01,0.02-0.02,0.03-0.03
		c0.33-0.5,0.75-0.91,1.22-1.27c0.14-0.29,0.3-0.56,0.5-0.81c0.01-0.01,0.01-0.02,0.02-0.03
		C627.55,215.84,628.02,215.33,628.58,214.93z"/>
</g>
<polygon class="st0" points="369.86,256.36 426.61,256.58 426.61,241.47 369.86,241.47 "/>
<polygon class="st0" points="426.61,241.47 426.61,256.58 369.87,256.36 369.87,241.47 "/>
<polyline points="369.87,400.56 369.87,321.01 426.61,321.01 426.61,400.56 "/>
<polygon points="357.8,619.36 227,619.36 227,256.36 330.01,256.36 330.01,570.79 357.41,618.67 "/>
<polyline points="423.53,256.36 435.89,304.93 330.01,304.93 330.01,256.36 "/>
<polyline points="369.87,241.47 369.87,252 423.53,252 423.53,241.47 "/>
<polyline points="369.87,321.01 369.86,309 426.61,309 426.61,321.01 "/>
<polyline points="317,570.79 366,570.79 366,619.36 357.7,619.36 "/>
<linearGradient id="SVGID_1_" gradientUnits="userSpaceOnUse" x1="625.9897" y1="194.2973" x2="636.5762" y2="194.2973">
	<stop  offset="1" style="stop-color:#FFFFFF"/>
	<stop  offset="1" style="stop-color:#000000"/>
</linearGradient>
<path class="st1" d="M629.14,215.08c0.21-0.44,0.47-0.85,0.84-1.19c0.19-0.19,0.36-0.38,0.53-0.58c0.36-0.41,0.77-0.76,1.25-1.05
	c0.4-0.17,0.8-0.34,1.19-0.5c0.28-0.08,0.56-0.12,0.85-0.15c0.22-0.62,0.56-1.19,1.01-1.67c0.51-0.71,1.11-1.21,1.77-1.54v-38.22
	c0,0-12.49,14.96-10.34,48.25c0.28-0.38,0.62-0.7,0.99-0.99c0.14-0.28,0.3-0.55,0.5-0.8c0.01-0.01,0.01-0.02,0.02-0.03
	C628.11,215.99,628.57,215.49,629.14,215.08z"/>
<linearGradient id="SVGID_00000063600764815960920490000011188922049907811752_" gradientUnits="userSpaceOnUse" x1="601.3977" y1="241.179" x2="612" y2="241.179">
	<stop  offset="1" style="stop-color:#FFFFFF"/>
	<stop  offset="1" style="stop-color:#000000"/>
</linearGradient>
<path style="fill:url(#SVGID_00000063600764815960920490000011188922049907811752_);" d="M609.27,238.37
	c-0.21,0.44-0.47,0.86-0.84,1.2c-0.08,0.08-0.16,0.15-0.25,0.22c-0.06,0.13-0.12,0.26-0.19,0.38c0,0-0.78,1.01-0.78,1.01
	c0,0,0,0,0,0c0,0-1.01,0.78-1.01,0.78c0,0,0,0,0,0c0,0-0.06,0.02-0.13,0.06c-0.19,0.69-0.51,1.34-0.97,1.88
	c0.01,0.03,0.01,0.06,0.02,0.09h6.9v-5.64C611.1,238.67,610.16,238.63,609.27,238.37z"/>
<path d="M636.58,170h3.49h43.23c0,0-59.3,46.94-64.3,50.95s-28.47,20.52-28.47,20.52L631.26,170"/>
<linearGradient id="SVGID_00000026851534995603745270000012619638428113120669_" gradientUnits="userSpaceOnUse" x1="590.5319" y1="228.4684" x2="629.6808" y2="228.4684">
	<stop  offset="1" style="stop-color:#FFFFFF"/>
	<stop  offset="1" style="stop-color:#000000"/>
</linearGradient>
<path style="fill:url(#SVGID_00000026851534995603745270000012619638428113120669_);" d="M624.94,220.35
	c0.2-0.62,0.55-1.16,1.03-1.61c0.01-0.01,0.02-0.02,0.03-0.03c0.11-0.16,0.24-0.3,0.37-0.45l-0.4-2.79l-35.44,26h4.56
	c0.16-2.69,2.38-4.49,4.97-4.7c2.18-0.17,4.32-0.67,6.45-1.19c-0.23-1.72,0.42-3.51,2.43-4.6c3.55-1.93,7.26-3.52,10.97-5.11
	c0-0.04,0-0.07,0-0.1c0.01-0.98,0.23-1.72,0.69-2.57c0.38-0.71,1.13-1.42,1.82-1.82c0.77-0.44,1.5-0.64,2.36-0.68
	C624.83,220.58,624.88,220.46,624.94,220.35z"/>
<linearGradient id="SVGID_00000046305246408458782680000013407714468349883777_" gradientUnits="userSpaceOnUse" x1="565.9713" y1="224.2756" x2="636.5762" y2="224.2756">
	<stop  offset="1" style="stop-color:#FFFFFF"/>
	<stop  offset="1" style="stop-color:#000000"/>
</linearGradient>
<path style="fill:url(#SVGID_00000046305246408458782680000013407714468349883777_);" d="M628.06,241.34
	c-0.79-1.2-1.12-2.71-0.65-4.05c0.49-1.39,1.09-2.74,1.7-4.09c0.48-1.07,1.39-1.74,2.43-2.09l5.04-24.03l-46.04,34.38h37.53
	C628.06,241.42,628.06,241.38,628.06,241.34z"/>
<path d="M747,217c-0.39-0.44-4.72-5.57-7.83-9.26c-0.73-0.91-1.36-1.69-1.94-2.39c-0.22-0.16-0.44-0.33-0.64-0.53
	c-0.04-0.04-0.09-0.09-0.13-0.13c-0.03-0.03-0.05-0.05-0.07-0.08c-0.09-0.08-0.16-0.18-0.24-0.27c-0.06-0.07-0.12-0.14-0.17-0.22
	c-0.07-0.1-0.16-0.18-0.23-0.28c-0.51-0.33-0.92-0.76-1.24-1.25c-0.06-0.05-0.12-0.09-0.17-0.14c-0.45-0.28-0.83-0.63-1.14-1.03
	c-4.89-3.59-9.46-6.89-14.49-9.98c-0.82-0.19-1.51-0.56-2.05-1.06c-0.76-0.22-1.39-0.59-1.89-1.08c-0.79-0.21-1.46-0.58-1.97-1.08
	c-0.37-0.12-0.71-0.29-1.01-0.49c-0.06-0.02-0.11-0.06-0.17-0.09c-0.18-0.07-0.36-0.14-0.54-0.2c-0.51-0.14-0.97-0.36-1.39-0.64
	c-0.15-0.04-0.29-0.1-0.44-0.16c-0.07-0.02-0.14-0.03-0.21-0.05c-0.47-0.16-0.93-0.33-1.36-0.57c-0.2-0.11-0.48-0.36-0.57-0.44
	c-0.02-0.01-0.04-0.03-0.07-0.05c-0.77-0.26-1.4-0.69-1.89-1.23c-3.85-1.7-8.11-3.34-13-4.94c-0.17-0.06-0.31-0.1-0.46-0.15
	c-26.58,16.89-80.42,59.38-80.42,59.38C762.21,219.68,745,287,745,287S766.41,238.76,747,217z M740.55,209.47
	c2.75,3.29,5.68,6.8,5.45,6.53C743.78,213.43,742.01,211.27,740.55,209.47z"/>
<path class="st5" d="M691.68,179.2c0,0,61.76,21.27,63.82,58.3"/>
<path d="M671,146c-3.11-2.14-6.39-4.29-9.86-6.43c-4.51-2.79-8.91-5.3-13.14-7.57c0,0-4.82-2.58-11.85-5.87
	c0,0-13.46-6.25-25.15-10.13c-10.14-3.37-27.31-6.27-59-3c-39.34,4.06-37.44,11.05-64,12c-28.09,1-50.2-6.1-65-11
	c-22.07-7.3-30.24-13.82-58-28c-3.95-2.02-44.79-22.77-75-33c-68.36-23.14-130.02-7.73-130-7c0.01,0.56,36.94-4.42,85,8
	c22.38,5.78,59.24,18.46,58,27c-1.34,9.18-48.68-0.53-111,13c-75.71,16.43-127.47,57.08-127,58c0.33,0.64,27.1-17.1,71-29
	c24.74-6.71,43.91-8.58,79-12c32.61-3.18,49.63-4.84,74-3c11.18,0.84,34,3.19,62,11c37.35,10.42,37.61,17.65,67,24
	c6.47,1.4,34.45,7.1,70,3c30.43-3.51,33.34-10.33,67-14c10.33-1.13,30.23-3.17,55,0c16.73,2.14,42.67,7.57,72,23"/>
<path d="M638,688"/>
<path d="M631,692"/>
<path d="M649.77,638c-4.23,0.09-7.18,4.62-19.77,25.01l0,0l0,0l0,0c1.13,2.34,35.15,44.71,30.06,88.88
	c-1.91,16.55-10.56,33.88-10.28,34.07c1.48,1.02,17.33-18.42,25.31-46.62c2.13-7.53,5.71-20.08,4.75-36.76
	c-1.19-20.6-8.51-34.86-14.24-45.73C659.85,645.94,655.48,637.88,649.77,638z"/>
<path d="M628.53,667.14c-3.28,0.09-5.58,4.43-15.34,23.98l0,0l0,0l0,0c0.88,2.25,27.28,42.86,23.33,85.19
	c-1.81,19.44-9.17,31.65-7.98,32.66c1.15,0.97,13.45-17.65,19.64-44.69c1.66-7.22,4.43-19.25,3.68-35.23
	c-0.93-19.75-6.61-33.42-11.05-43.83C636.36,674.75,632.97,667.03,628.53,667.14z"/>
<path d="M607.14,699.14c-3.2,0.08-5.43,3.83-14.94,20.76l0,0l0,0l0,0c0.85,1.94,26.58,37.12,22.73,73.78
	c-1.77,16.84-8.94,27.41-7.77,28.28c1.12,0.84,13.1-15.29,19.14-38.7c1.61-6.25,4.32-16.67,3.59-30.52
	c-0.9-17.1-6.44-28.94-10.76-37.96C614.76,705.73,611.46,699.04,607.14,699.14z"/>
<path d="M350.53,634c-80.84,28.67-161.69,57.33-242.53,86c12.33,10.67,24.67,21.33,37,32"/>
<polyline points="342,634 95.87,703 55.89,668.5 "/>
<polyline points="350.53,639.55 161.6,760.57 204,786 "/>
<polyline points="581,400.56 533.34,471.79 581,471.79 624.88,401.9 "/>
</svg>
