<svg width="33" height="38" viewBox="0 0 33 38" fill="none" xmlns="http://www.w3.org/2000/svg">
<g id="Frame" clip-path="url(#clip0_1201_7507)">
<g id="Group">
<g id="Layer 1">
<path id="Vector" fill-rule="evenodd" clip-rule="evenodd" d="M16.13 0L32.27 9.31V27.94L16.13 37.26L0 27.94V9.31L16.13 0Z" fill="#FF9700"/>
<path id="Vector_2" fill-rule="evenodd" clip-rule="evenodd" d="M16.13 2.35L30.23 10.49V26.77L16.13 34.91L2.03003 26.77V10.49L16.13 2.35Z" fill="#0068FF"/>
<path id="Vector_3" fill-rule="evenodd" clip-rule="evenodd" d="M7.83003 13.84L10.81 12.95L13.88 11.17L16.13 9.04V2.35L9.08003 6.42L2.03003 10.49L7.83003 13.84Z" fill="url(#paint0_radial_1201_7507)"/>
<path id="Vector_4" fill-rule="evenodd" clip-rule="evenodd" d="M16.13 9.04L18.39 11.17L21.46 12.95L24.44 13.84L30.23 10.49L23.18 6.42L16.13 2.35V9.04Z" fill="url(#paint1_radial_1201_7507)"/>
<path id="Vector_5" fill-rule="evenodd" clip-rule="evenodd" d="M24.44 13.84L23.72 16.86V20.4L24.44 23.42L30.23 26.77V18.63V10.49L24.44 13.84Z" fill="url(#paint2_radial_1201_7507)"/>
<path id="Vector_6" fill-rule="evenodd" clip-rule="evenodd" d="M24.44 23.42L21.46 24.31L18.39 26.08L16.13 28.22V34.91L23.18 30.84L30.23 26.77L24.44 23.42Z" fill="url(#paint3_radial_1201_7507)"/>
<path id="Vector_7" fill-rule="evenodd" clip-rule="evenodd" d="M16.13 28.22L13.88 26.08L10.81 24.31L7.83003 23.42L2.03003 26.77L9.08003 30.84L16.13 34.91V28.22Z" fill="url(#paint4_radial_1201_7507)"/>
<path id="Vector_8" fill-rule="evenodd" clip-rule="evenodd" d="M7.83003 23.42L8.55003 20.4V16.86L7.83003 13.84L2.03003 10.49V18.63V26.77L7.83003 23.42Z" fill="url(#paint5_radial_1201_7507)"/>
<path id="Vector_9" style="mix-blend-mode:multiply" fill-rule="evenodd" clip-rule="evenodd" d="M24.98 18.01C24.98 16.56 30.1 11.56 30.24 15.48V10.48L25.82 13.03L24.98 16.55V18V18.01Z" fill="url(#paint6_radial_1201_7507)"/>
<path id="Vector_10" style="mix-blend-mode:screen" fill-rule="evenodd" clip-rule="evenodd" d="M8.41003 6.8C9.62003 6.8 10.62 10.42 10.41 11.71L13.48 9.93C12.72 9.17 12.24 4.58 14.48 3.32L8.48004 6.8H8.41003Z" fill="url(#paint7_radial_1201_7507)"/>
<path id="Vector_11" style="mix-blend-mode:screen" fill-rule="evenodd" clip-rule="evenodd" d="M28.2 27.94C26.33 27.81 25.2 27.62 23.46 24.94L22.35 25.28L20.05 26.6C21.25 27.42 23.52 29.81 22.83 31.06L28.2 27.96V27.94Z" fill="url(#paint8_radial_1201_7507)"/>
<path id="Vector_12" fill-rule="evenodd" clip-rule="evenodd" d="M18.77 9.94L22.34 12L24.98 16.56V20.7L22.34 25.26L18.77 27.32H13.5L9.92004 25.26L7.29004 20.7V16.56L9.92004 12L13.5 9.94H18.77Z" fill="url(#paint9_radial_1201_7507)"/>
<path id="Vector_13" fill-rule="evenodd" clip-rule="evenodd" d="M13.5 9.94L16.13 7.45L18.77 9.94H13.5Z" fill="url(#paint10_radial_1201_7507)"/>
<path id="Vector_14" fill-rule="evenodd" clip-rule="evenodd" d="M22.34 12L25.82 13.04L24.98 16.56L22.34 12Z" fill="url(#paint11_radial_1201_7507)"/>
<path id="Vector_15" fill-rule="evenodd" clip-rule="evenodd" d="M24.98 20.7L25.82 24.22L22.34 25.26L24.98 20.7Z" fill="url(#paint12_radial_1201_7507)"/>
<path id="Vector_16" fill-rule="evenodd" clip-rule="evenodd" d="M13.5 27.32L16.13 29.81L18.77 27.32H13.5Z" fill="url(#paint13_radial_1201_7507)"/>
<path id="Vector_17" fill-rule="evenodd" clip-rule="evenodd" d="M7.28995 20.7L6.44995 24.22L9.91995 25.26L7.28995 20.7Z" fill="url(#paint14_radial_1201_7507)"/>
<path id="Vector_18" fill-rule="evenodd" clip-rule="evenodd" d="M9.91995 12L6.44995 13.04L7.28995 16.56L9.91995 12Z" fill="url(#paint15_radial_1201_7507)"/>
<path id="Vector_19" style="mix-blend-mode:screen" fill-rule="evenodd" clip-rule="evenodd" d="M8.61004 22.98L16.13 18.63L8.61004 14.28L7.29004 16.56V20.7L8.61004 22.98Z" fill="url(#paint16_radial_1201_7507)"/>
<path id="Vector_20" style="mix-blend-mode:screen" fill-rule="evenodd" clip-rule="evenodd" d="M8.60999 14.28L16.13 18.63V9.94H13.5L9.91999 12L8.60999 14.28Z" fill="url(#paint17_radial_1201_7507)"/>
<path id="Vector_21" style="mix-blend-mode:screen" opacity="0.5" fill-rule="evenodd" clip-rule="evenodd" d="M16.13 9.94V18.63L23.66 14.28L22.34 12L18.77 9.94H16.13Z" fill="url(#paint18_radial_1201_7507)"/>
<path id="Vector_22" style="mix-blend-mode:screen" opacity="0.75" fill-rule="evenodd" clip-rule="evenodd" d="M23.66 14.28L16.13 18.63L23.66 22.98L24.98 20.7V16.56L23.66 14.28Z" fill="url(#paint19_radial_1201_7507)"/>
<path id="Vector_23" style="mix-blend-mode:screen" opacity="0.5" fill-rule="evenodd" clip-rule="evenodd" d="M23.66 22.98L16.13 18.63V27.32H18.77L22.34 25.26L23.66 22.98Z" fill="url(#paint20_radial_1201_7507)"/>
<path id="Vector_24" style="mix-blend-mode:screen" opacity="0.5" fill-rule="evenodd" clip-rule="evenodd" d="M16.13 27.32V18.63L8.60999 22.98L9.91999 25.26L13.5 27.32H16.13Z" fill="url(#paint21_radial_1201_7507)"/>
<path id="Vector_25" style="mix-blend-mode:screen" fill-rule="evenodd" clip-rule="evenodd" d="M11.71 26.33L13.5 27.53C14.3004 28.2728 15.021 29.0973 15.65 29.99C15.9566 31.3729 16.1208 32.7836 16.14 34.2C16.1522 32.7782 16.3063 31.3612 16.6 29.97C16.6582 29.8125 16.739 29.6642 16.84 29.53L17.78 28.3L16.78 28.94C16.6094 29.0449 16.4091 29.0905 16.21 29.07C15.462 28.8057 14.8292 28.2895 14.42 27.61L15.61 27.33L13.78 27.19L11.71 26.33Z" fill="url(#paint22_radial_1201_7507)"/>
<path id="Vector_26" style="mix-blend-mode:screen" fill-rule="evenodd" clip-rule="evenodd" d="M11.71 10.97L13.5 9.77C14.2947 9.02895 15.0148 8.2117 15.65 7.33C15.9548 5.85894 16.1189 4.36218 16.14 2.86C16.1532 4.36111 16.3072 5.85767 16.6 7.33C16.6559 7.49166 16.7368 7.64352 16.84 7.78L17.78 9.01L16.78 8.37C16.6136 8.25537 16.4096 8.20885 16.21 8.24C15.8299 8.353 15.4761 8.54021 15.1688 8.79081C14.8616 9.04141 14.607 9.35043 14.42 9.7L15.66 9.94L13.83 10.09L11.76 10.98L11.71 10.97Z" fill="url(#paint23_radial_1201_7507)"/>
<path id="Vector_27" style="mix-blend-mode:screen" fill-rule="evenodd" clip-rule="evenodd" d="M11.7101 10.97L9.78005 11.97C8.73621 12.2827 7.66455 12.4937 6.58005 12.6C5.22558 12.1718 3.91872 11.6055 2.68005 10.91C3.90214 11.6038 5.05418 12.4142 6.12005 13.33C6.46631 13.9242 6.75432 14.5504 6.98005 15.2C6.98005 14.72 6.84005 13.79 7.12005 13.41C7.71203 12.8804 8.48626 12.6008 9.28005 12.63L8.87005 13.82L9.87005 12.31L11.6701 10.97H11.7101Z" fill="url(#paint24_radial_1201_7507)"/>
<path id="Vector_28" style="mix-blend-mode:screen" fill-rule="evenodd" clip-rule="evenodd" d="M24.98 18.63L25.13 20.78C25.3639 21.8396 25.6988 22.8743 26.13 23.87C27.0843 24.7769 28.1415 25.5689 29.28 26.23C28.1324 25.585 26.9188 25.0653 25.66 24.68C25.4909 24.6548 25.3191 24.6548 25.15 24.68L23.62 24.88L24.71 24.28C24.8852 24.1901 25.0233 24.0414 25.1 23.86C25.2491 23.0801 25.1181 22.2727 24.73 21.58L23.9 22.53L24.69 20.88L24.95 18.64L24.98 18.63Z" fill="url(#paint25_radial_1201_7507)"/>
<path id="Vector_29" style="mix-blend-mode:multiply" fill-rule="evenodd" clip-rule="evenodd" d="M11.18 25.98C9.92003 25.26 3.03003 27.19 6.36003 29.27L2.03003 26.77L6.45003 24.22L9.92003 25.22L11.18 25.94V25.98Z" fill="url(#paint26_radial_1201_7507)"/>
<path id="Vector_30" fill-rule="evenodd" clip-rule="evenodd" d="M1.26 10.04L16.13 1.46V0L0 9.31L1.26 10.04Z" fill="url(#paint27_radial_1201_7507)"/>
<path id="Vector_31" fill-rule="evenodd" clip-rule="evenodd" d="M16.13 1.46L31 10.04L32.27 9.31L16.13 0V1.46Z" fill="url(#paint28_radial_1201_7507)"/>
<path id="Vector_32" fill-rule="evenodd" clip-rule="evenodd" d="M13.88 3.65L16.13 2.35V1.46L1.26001 10.04L2.03001 10.49L7.84001 7.13L13.88 3.65Z" fill="url(#paint29_radial_1201_7507)"/>
<path id="Vector_33" fill-rule="evenodd" clip-rule="evenodd" d="M16.13 2.35L23.18 6.42L30.23 10.49L31 10.04L16.13 1.46V2.35Z" fill="url(#paint30_radial_1201_7507)"/>
<path id="Vector_34" fill-rule="evenodd" clip-rule="evenodd" d="M1.26 27.21V10.04L0 9.31V27.94L1.26 27.21Z" fill="url(#paint31_radial_1201_7507)"/>
<path id="Vector_35" fill-rule="evenodd" clip-rule="evenodd" d="M1.26001 10.04V27.21L2.03001 26.77V18.63V10.49L1.26001 10.04Z" fill="url(#paint32_radial_1201_7507)"/>
<path id="Vector_36" fill-rule="evenodd" clip-rule="evenodd" d="M30.23 15.49V18.63V26.77L31 27.21V10.04L30.23 10.49V15.49Z" fill="url(#paint33_radial_1201_7507)"/>
<path id="Vector_37" fill-rule="evenodd" clip-rule="evenodd" d="M31 10.04V27.21L32.27 27.94V9.31L31 10.04Z" fill="url(#paint34_radial_1201_7507)"/>
<path id="Vector_38" fill-rule="evenodd" clip-rule="evenodd" d="M9.08001 30.84L6.36001 29.27L2.03001 26.77L1.26001 27.21L16.13 35.8V34.91L9.08001 30.84Z" fill="url(#paint35_radial_1201_7507)"/>
<path id="Vector_39" fill-rule="evenodd" clip-rule="evenodd" d="M16.13 35.8L1.26 27.21L0 27.94L16.13 37.26V35.8Z" fill="url(#paint36_radial_1201_7507)"/>
<path id="Vector_40" fill-rule="evenodd" clip-rule="evenodd" d="M20.12 32.61L16.13 34.91V35.8L31 27.21L30.23 26.77L26.16 29.12L23.18 30.84L20.12 32.61Z" fill="url(#paint37_radial_1201_7507)"/>
<path id="Vector_41" fill-rule="evenodd" clip-rule="evenodd" d="M31 27.21L16.13 35.8V37.26L32.27 27.94L31 27.21Z" fill="url(#paint38_radial_1201_7507)"/>
<path id="Vector_42" style="mix-blend-mode:screen" fill-rule="evenodd" clip-rule="evenodd" d="M16.14 0V1.46L1.28 10.04L0 9.33C1.67 9.33 3.18 8.69 6.79 6.54L10.32 4.54C13.99 2.54 15.32 1.54 16.14 0.0599995V0Z" fill="url(#paint39_radial_1201_7507)"/>
<path id="Vector_43" style="mix-blend-mode:screen" fill-rule="evenodd" clip-rule="evenodd" d="M30.28 26.77L31.05 27.21L16.14 35.8V34.94C16.86 35.25 18.02 34.37 21.66 32.28L25.19 30.28C28.83 28.18 30.06 27.58 30.24 26.81L30.28 26.77Z" fill="url(#paint40_radial_1201_7507)"/>
<path id="Vector_44" style="mix-blend-mode:screen" fill-rule="evenodd" clip-rule="evenodd" d="M9.20996 5.45L15.96 1.35L16.13 0.16L16.3 1.35L18.36 2.74L16.13 1.67L9.20996 5.45Z" fill="url(#paint41_radial_1201_7507)"/>
<path id="Vector_45" style="mix-blend-mode:screen" fill-rule="evenodd" clip-rule="evenodd" d="M22.22 32.28L31.01 27.41L32.13 27.86L31.18 27.12L31 22.68L30.82 27.11L22.22 32.28Z" fill="url(#paint42_radial_1201_7507)"/>
<path id="Vector_46" style="mix-blend-mode:screen" fill-rule="evenodd" clip-rule="evenodd" d="M8.18001 6.05L1.26001 9.84L0.140015 9.39L1.09001 10.14L1.26001 19.95L1.44001 10.15L8.18001 6.05Z" fill="url(#paint43_radial_1201_7507)"/>
<path id="Vector_47" style="mix-blend-mode:screen" fill-rule="evenodd" clip-rule="evenodd" d="M8.18001 31.21L1.26001 27.41L0.140015 27.86L1.09001 27.12L1.26001 21.88L1.44001 27.11L8.18001 31.21Z" fill="url(#paint44_radial_1201_7507)"/>
</g>
</g>
</g>
<defs>
<radialGradient id="paint0_radial_1201_7507" cx="0" cy="0" r="1" gradientUnits="userSpaceOnUse" gradientTransform="translate(14.9 9.18) scale(22.46)">
<stop stop-color="#8CE4FF"/>
<stop offset="1" stop-color="#217CFF"/>
</radialGradient>
<radialGradient id="paint1_radial_1201_7507" cx="0" cy="0" r="1" gradientUnits="userSpaceOnUse" gradientTransform="translate(25.06 13.71) scale(20.81 20.81)">
<stop stop-color="#007BFF"/>
<stop offset="1" stop-color="#0050EB"/>
</radialGradient>
<radialGradient id="paint2_radial_1201_7507" cx="0" cy="0" r="1" gradientUnits="userSpaceOnUse" gradientTransform="translate(21.16 11.73) scale(17.17)">
<stop stop-color="#3BB2FF"/>
<stop offset="1" stop-color="#0068FF"/>
</radialGradient>
<radialGradient id="paint3_radial_1201_7507" cx="0" cy="0" r="1" gradientUnits="userSpaceOnUse" gradientTransform="translate(22.79 14.68) scale(30.87 30.87)">
<stop stop-color="#8CE4FF"/>
<stop offset="1" stop-color="#217CFF"/>
</radialGradient>
<radialGradient id="paint4_radial_1201_7507" cx="0" cy="0" r="1" gradientUnits="userSpaceOnUse" gradientTransform="translate(17.65 30.15) scale(21.13)">
<stop stop-color="#007BFF"/>
<stop offset="1" stop-color="#0050EB"/>
</radialGradient>
<radialGradient id="paint5_radial_1201_7507" cx="0" cy="0" r="1" gradientUnits="userSpaceOnUse" gradientTransform="translate(11.89 10.65) scale(18.79)">
<stop stop-color="#3BB2FF"/>
<stop offset="1" stop-color="#0068FF"/>
</radialGradient>
<radialGradient id="paint6_radial_1201_7507" cx="0" cy="0" r="1" gradientUnits="userSpaceOnUse" gradientTransform="translate(32.73 20.95) scale(10.88 10.88)">
<stop offset="0.63" stop-color="white"/>
<stop offset="0.68" stop-color="#FAFBFD"/>
<stop offset="0.74" stop-color="#ECF1F8"/>
<stop offset="0.8" stop-color="#D4E0F0"/>
<stop offset="0.86" stop-color="#B2C8E5"/>
<stop offset="0.93" stop-color="#87A9D6"/>
<stop offset="1" stop-color="#5282C4"/>
</radialGradient>
<radialGradient id="paint7_radial_1201_7507" cx="0" cy="0" r="1" gradientUnits="userSpaceOnUse" gradientTransform="translate(13.67 10.8) scale(22.57 22.57)">
<stop stop-color="#5CE4FF"/>
<stop offset="1"/>
</radialGradient>
<radialGradient id="paint8_radial_1201_7507" cx="0" cy="0" r="1" gradientUnits="userSpaceOnUse" gradientTransform="translate(22.35 23.71) scale(9.45)">
<stop stop-color="#5CE4FF"/>
<stop offset="1"/>
</radialGradient>
<radialGradient id="paint9_radial_1201_7507" cx="0" cy="0" r="1" gradientUnits="userSpaceOnUse" gradientTransform="translate(12.52 10.35) scale(22.58 22.58)">
<stop stop-color="#36A1FF"/>
<stop offset="1" stop-color="#0049FF"/>
</radialGradient>
<radialGradient id="paint10_radial_1201_7507" cx="0" cy="0" r="1" gradientUnits="userSpaceOnUse" gradientTransform="translate(13.24 3.7) scale(13.75 13.75)">
<stop stop-color="#DBF7FF"/>
<stop offset="1" stop-color="#5CC3FF"/>
</radialGradient>
<radialGradient id="paint11_radial_1201_7507" cx="0" cy="0" r="1" gradientUnits="userSpaceOnUse" gradientTransform="translate(28.09 6.86) scale(11.14)">
<stop stop-color="#8CE4FF"/>
<stop offset="1" stop-color="#217CFF"/>
</radialGradient>
<radialGradient id="paint12_radial_1201_7507" cx="0" cy="0" r="1" gradientUnits="userSpaceOnUse" gradientTransform="translate(25.85 24.03) scale(13.64)">
<stop stop-color="#8CE4FF"/>
<stop offset="1" stop-color="#217CFF"/>
</radialGradient>
<radialGradient id="paint13_radial_1201_7507" cx="0" cy="0" r="1" gradientUnits="userSpaceOnUse" gradientTransform="translate(17.78 25.02) scale(13.2 13.2)">
<stop stop-color="#B3EDFF"/>
<stop offset="1" stop-color="#2795FF"/>
</radialGradient>
<radialGradient id="paint14_radial_1201_7507" cx="0" cy="0" r="1" gradientUnits="userSpaceOnUse" gradientTransform="translate(6.86995 24.95) scale(15.21 15.21)">
<stop stop-color="#3BB2FF"/>
<stop offset="1" stop-color="#0068FF"/>
</radialGradient>
<radialGradient id="paint15_radial_1201_7507" cx="0" cy="0" r="1" gradientUnits="userSpaceOnUse" gradientTransform="translate(9.75995 12.18) scale(20.26 20.26)">
<stop stop-color="#DBF7FF"/>
<stop offset="1" stop-color="#5CC3FF"/>
</radialGradient>
<radialGradient id="paint16_radial_1201_7507" cx="0" cy="0" r="1" gradientUnits="userSpaceOnUse" gradientTransform="translate(-12.63 23.29) scale(29.03)">
<stop stop-color="#5CE4FF"/>
<stop offset="1"/>
</radialGradient>
<radialGradient id="paint17_radial_1201_7507" cx="0" cy="0" r="1" gradientUnits="userSpaceOnUse" gradientTransform="translate(10.07 -6.01) scale(27.23)">
<stop stop-color="#5CE4FF"/>
<stop offset="1"/>
</radialGradient>
<radialGradient id="paint18_radial_1201_7507" cx="0" cy="0" r="1" gradientUnits="userSpaceOnUse" gradientTransform="translate(25.22 4.17) scale(17.22 17.22)">
<stop stop-color="#5CE4FF"/>
<stop offset="1"/>
</radialGradient>
<radialGradient id="paint19_radial_1201_7507" cx="0" cy="0" r="1" gradientUnits="userSpaceOnUse" gradientTransform="translate(29.62 7.99) scale(19.44)">
<stop stop-color="#5CE4FF"/>
<stop offset="1"/>
</radialGradient>
<radialGradient id="paint20_radial_1201_7507" cx="0" cy="0" r="1" gradientUnits="userSpaceOnUse" gradientTransform="translate(26.33 34.64) scale(29.04 29.04)">
<stop stop-color="#5CE4FF"/>
<stop offset="1"/>
</radialGradient>
<radialGradient id="paint21_radial_1201_7507" cx="0" cy="0" r="1" gradientUnits="userSpaceOnUse" gradientTransform="translate(10.63 32.01) scale(18.99 18.99)">
<stop stop-color="#5CE4FF"/>
<stop offset="1"/>
</radialGradient>
<radialGradient id="paint22_radial_1201_7507" cx="0" cy="0" r="1" gradientUnits="userSpaceOnUse" gradientTransform="translate(15.8 28.19) scale(10.76 10.76)">
<stop stop-color="#5CE4FF"/>
<stop offset="1"/>
</radialGradient>
<radialGradient id="paint23_radial_1201_7507" cx="0" cy="0" r="1" gradientUnits="userSpaceOnUse" gradientTransform="translate(14.6 7.2) scale(9.71 9.71)">
<stop stop-color="#5CE4FF"/>
<stop offset="1"/>
</radialGradient>
<radialGradient id="paint24_radial_1201_7507" cx="0" cy="0" r="1" gradientUnits="userSpaceOnUse" gradientTransform="translate(7.74005 11.42) scale(9.23 9.22999)">
<stop stop-color="#5CE4FF"/>
<stop offset="1"/>
</radialGradient>
<radialGradient id="paint25_radial_1201_7507" cx="0" cy="0" r="1" gradientUnits="userSpaceOnUse" gradientTransform="translate(25.96 24.14) scale(11.83 11.83)">
<stop stop-color="#5CE4FF"/>
<stop offset="1"/>
</radialGradient>
<radialGradient id="paint26_radial_1201_7507" cx="0" cy="0" r="1" gradientUnits="userSpaceOnUse" gradientTransform="translate(11.53 36) scale(14.13 14.13)">
<stop offset="0.63" stop-color="white"/>
<stop offset="0.68" stop-color="#FAFBFD"/>
<stop offset="0.74" stop-color="#ECF1F8"/>
<stop offset="0.8" stop-color="#D4E0F0"/>
<stop offset="0.86" stop-color="#B2C8E5"/>
<stop offset="0.93" stop-color="#87A9D6"/>
<stop offset="1" stop-color="#5282C4"/>
</radialGradient>
<radialGradient id="paint27_radial_1201_7507" cx="0" cy="0" r="1" gradientUnits="userSpaceOnUse" gradientTransform="translate(16.01 -0.45) scale(19.8)">
<stop stop-color="#FFF8C7"/>
<stop offset="1" stop-color="#FFC521"/>
</radialGradient>
<radialGradient id="paint28_radial_1201_7507" cx="0" cy="0" r="1" gradientUnits="userSpaceOnUse" gradientTransform="translate(25.28 -6.47) scale(23.84 23.84)">
<stop stop-color="#FFEB68"/>
<stop offset="1" stop-color="#E67D2D"/>
</radialGradient>
<radialGradient id="paint29_radial_1201_7507" cx="0" cy="0" r="1" gradientUnits="userSpaceOnUse" gradientTransform="translate(15.48 9.44) scale(16.33)">
<stop stop-color="#FF9900"/>
<stop offset="1" stop-color="#C44800"/>
</radialGradient>
<radialGradient id="paint30_radial_1201_7507" cx="0" cy="0" r="1" gradientUnits="userSpaceOnUse" gradientTransform="translate(22.87 -3.28) scale(35.89 35.89)">
<stop stop-color="#FF9900"/>
<stop offset="1" stop-color="#C44800"/>
</radialGradient>
<radialGradient id="paint31_radial_1201_7507" cx="0" cy="0" r="1" gradientUnits="userSpaceOnUse" gradientTransform="translate(-18.11 15.93) scale(28.4 28.4)">
<stop stop-color="#FFEB68"/>
<stop offset="1" stop-color="#E67D2D"/>
</radialGradient>
<radialGradient id="paint32_radial_1201_7507" cx="0" cy="0" r="1" gradientUnits="userSpaceOnUse" gradientTransform="translate(9.13001 18.32) scale(24.16 24.16)">
<stop stop-color="#FF9900"/>
<stop offset="1" stop-color="#C44800"/>
</radialGradient>
<radialGradient id="paint33_radial_1201_7507" cx="0" cy="0" r="1" gradientUnits="userSpaceOnUse" gradientTransform="translate(20.75 19.17) scale(25.48 25.48)">
<stop stop-color="#FFEB68"/>
<stop offset="1" stop-color="#E67D2D"/>
</radialGradient>
<radialGradient id="paint34_radial_1201_7507" cx="0" cy="0" r="1" gradientUnits="userSpaceOnUse" gradientTransform="translate(19.66 15.6) scale(26.55 26.55)">
<stop stop-color="#FF9900"/>
<stop offset="1" stop-color="#C44800"/>
</radialGradient>
<radialGradient id="paint35_radial_1201_7507" cx="0" cy="0" r="1" gradientUnits="userSpaceOnUse" gradientTransform="translate(16.77 21.77) scale(21.92 21.92)">
<stop stop-color="#FFEB68"/>
<stop offset="1" stop-color="#E67D2D"/>
</radialGradient>
<radialGradient id="paint36_radial_1201_7507" cx="0" cy="0" r="1" gradientUnits="userSpaceOnUse" gradientTransform="translate(16.96 21.39) scale(26.94)">
<stop stop-color="#FF9900"/>
<stop offset="1" stop-color="#C44800"/>
</radialGradient>
<radialGradient id="paint37_radial_1201_7507" cx="0" cy="0" r="1" gradientUnits="userSpaceOnUse" gradientTransform="translate(30 32.83) scale(19.09 19.09)">
<stop stop-color="#FFF8C7"/>
<stop offset="1" stop-color="#FFC521"/>
</radialGradient>
<radialGradient id="paint38_radial_1201_7507" cx="0" cy="0" r="1" gradientUnits="userSpaceOnUse" gradientTransform="translate(16.44 19.64) scale(22.04 22.04)">
<stop stop-color="#FF9900"/>
<stop offset="1" stop-color="#C44800"/>
</radialGradient>
<radialGradient id="paint39_radial_1201_7507" cx="0" cy="0" r="1" gradientUnits="userSpaceOnUse" gradientTransform="translate(5.42 -0.839999) scale(14.99 14.99)">
<stop/>
<stop offset="1" stop-color="#FFD58C"/>
</radialGradient>
<radialGradient id="paint40_radial_1201_7507" cx="0" cy="0" r="1" gradientUnits="userSpaceOnUse" gradientTransform="translate(20.38 26.55) scale(12.59 12.59)">
<stop/>
<stop offset="1" stop-color="#FFD58C"/>
</radialGradient>
<radialGradient id="paint41_radial_1201_7507" cx="0" cy="0" r="1" gradientUnits="userSpaceOnUse" gradientTransform="translate(15.07 0.29) scale(11.06)">
<stop stop-color="#FFEF8F"/>
<stop offset="1"/>
</radialGradient>
<radialGradient id="paint42_radial_1201_7507" cx="0" cy="0" r="1" gradientUnits="userSpaceOnUse" gradientTransform="translate(31.75 27.64) scale(18.07 18.07)">
<stop stop-color="#FFEF8F"/>
<stop offset="1"/>
</radialGradient>
<radialGradient id="paint43_radial_1201_7507" cx="0" cy="0" r="1" gradientUnits="userSpaceOnUse" gradientTransform="translate(0.640014 7.6) scale(11.93)">
<stop stop-color="#FFEF8F"/>
<stop offset="1"/>
</radialGradient>
<radialGradient id="paint44_radial_1201_7507" cx="0" cy="0" r="1" gradientUnits="userSpaceOnUse" gradientTransform="translate(2.62001 26.65) scale(10.88)">
<stop stop-color="#FFEF8F"/>
<stop offset="1"/>
</radialGradient>
<clipPath id="clip0_1201_7507">
<rect width="32.27" height="37.26" fill="white"/>
</clipPath>
</defs>
</svg>
