<svg width="20" height="20" viewBox="0 0 20 20" fill="none" xmlns="http://www.w3.org/2000/svg">
<g id="home (1) 1" clip-path="url(#clip0_241_1376)">
<g id="Group">
<path id="Vector" d="M19.1458 7.24515L13.2408 1.34016C11.4496 -0.446436 8.55032 -0.446436 6.75912 1.34016L0.854128 7.24515C0.305379 7.79097 -0.00219829 8.53362 -4.98552e-05 9.30765V17.9559C0.00178608 19.0848 0.916941 19.9992 2.04581 20.0001H17.9541C19.083 19.9992 19.9981 19.0848 19.9999 17.9559V9.30765C20.0021 8.53362 19.6945 7.79097 19.1458 7.24515ZM17.4999 17.5001H13.3333V14.8485C13.3333 13.0913 11.9088 11.6668 10.1516 11.6668H9.84829C8.09111 11.6668 6.66662 13.0913 6.66662 14.8485V17.5001H2.49995V9.30765C2.50022 9.19714 2.54389 9.0912 2.62162 9.01265L8.52661 3.10766C9.34009 2.29395 10.6592 2.29379 11.4729 3.10727C11.473 3.10739 11.4732 3.10754 11.4733 3.10766L17.3783 9.01265C17.456 9.0912 17.4997 9.19714 17.5 9.30765V17.5001H17.4999Z" fill="#00AEEF"/>
</g>
</g>
<defs>
<clipPath id="clip0_241_1376">
<rect width="20" height="20" fill="white"/>
</clipPath>
</defs>
</svg>
