<svg width="154" height="160" viewBox="0 0 154 160" fill="none" xmlns="http://www.w3.org/2000/svg">
<g id="LOGO">
<g id="Group">
<path id="Vector" d="M100.807 101.86C99.5309 107.751 93.7319 118.058 87.4136 120.894C91.0629 122.182 96.5497 120.549 100.532 121.484C89.4858 133.626 72.0246 140.627 51.696 137.215C38.5027 134.892 35.4356 126.675 35.6668 119.042C36.4717 111.873 39.0813 101.855 46.5289 91.6226C60.6179 72.266 46.2033 50.1563 37.4933 47.0432C28.7833 43.9312 21.2352 54.5242 24.5372 55.5316C24.5372 55.5316 24.3871 52.393 28.4492 51.7311C28.4093 51.8353 28.3838 51.9493 28.3802 52.0681C28.362 52.6342 28.8063 53.1082 29.3715 53.1264C29.9368 53.1446 30.41 52.6997 30.4282 52.1348C30.4427 51.6886 30.1704 51.3007 29.777 51.1467C30.3072 50.9637 31.0019 50.8 31.8383 50.7794C32.1094 50.7721 32.2462 51.1043 32.0525 51.2946C30.9438 52.3748 28.5618 55.0794 29.0387 58.0107C29.0387 58.0107 31.8516 58.989 35.3823 56.0323C35.6886 55.7765 38.4192 59.0399 38.5887 59.2642C40.8642 62.2695 42.117 65.9245 42.2489 69.6887C42.4571 75.601 40.0278 81.4806 36.8869 86.3746C29.0072 98.6502 23.1138 111.774 27.8585 126.479C31.9097 139.039 43.4484 144.237 55.8332 144.833C69.6995 145.501 85.27 143.79 97.754 137.469C99.9291 136.368 102.03 135.122 104.046 133.748C113.527 127.286 127.558 118.248 133.026 109.747C126.124 111.766 107.984 103.417 100.807 101.862V101.86Z" fill="white"/>
<path id="Vector_2" d="M25.8613 54.6139C25.8613 54.6139 26.3467 56.739 25.2562 57.3318C25.2562 57.3318 25.8347 56.5729 25.6023 55.7522C25.6023 55.7522 20.2548 60.4644 20.0018 62.678C19.9764 62.8974 20.2221 63.0453 20.4085 62.9278L28.4153 57.8786C28.4153 57.8786 27.8246 55.5655 25.8601 54.6139H25.8613Z" fill="white"/>
<path id="Vector_3" d="M40.3365 111.813C47.8603 98.1301 64.9874 89.8381 64.9874 89.8381C107.141 68.9346 97.1863 15 97.1863 15C96.2047 32.1963 87.1424 61.1469 63.1064 80.7908C39.0704 100.435 40.3365 111.813 40.3365 111.813Z" fill="white"/>
<path id="Vector_4" d="M63.9683 95.6255C42.7101 105.317 38.3091 126.239 38.3091 126.239C50.7701 111.37 55.1033 117.86 81.2212 105.181C107.339 92.5003 107.063 43.6209 107.063 43.6209C96.3766 69.2923 85.2264 85.9345 63.9683 95.6255Z" fill="white"/>
<path id="Vector_5" d="M41.6449 132.467C46.9718 127.109 60.3274 126.369 60.3274 126.369C94.285 125.74 101.184 90.1593 101.184 90.1593C91.6282 106.155 78.9674 110.997 60.285 117.095C41.6025 123.193 41.6449 132.467 41.6449 132.467Z" fill="white"/>
</g>
</g>
</svg>
