<svg width="32" height="32" viewBox="0 0 32 32" fill="none" xmlns="http://www.w3.org/2000/svg">
<g id="order 1">
<g id="Group">
<g id="Icon_35_">
<path id="Vector" fill-rule="evenodd" clip-rule="evenodd" d="M2.52631 9.05262C1.13179 9.05262 0 7.92084 0 6.52631C0 5.13179 1.13179 4 2.52631 4H29.4736C30.8682 4 31.9999 5.13179 31.9999 6.52631C31.9999 7.92084 30.8682 9.05262 29.4736 9.05262H2.52631Z" fill="#181B21"/>
<path id="Vector_2" fill-rule="evenodd" clip-rule="evenodd" d="M2.52631 18.1052C1.13179 18.1052 0 16.9734 0 15.5789C0 14.1844 1.13179 13.0526 2.52631 13.0526H29.4736C30.8682 13.0526 31.9999 14.1844 31.9999 15.5789C31.9999 16.9734 30.8682 18.1052 29.4736 18.1052H2.52631Z" fill="#181B21"/>
<path id="Vector_3" fill-rule="evenodd" clip-rule="evenodd" d="M2.52631 27.1578C1.13179 27.1578 0 26.0261 0 24.6315C0 23.237 1.13179 22.1052 2.52631 22.1052H16C17.3945 22.1052 18.5263 23.237 18.5263 24.6315C18.5263 26.0261 17.3945 27.1578 16 27.1578H2.52631Z" fill="#181B21"/>
</g>
</g>
</g>
</svg>
